HIERARCHY
ROOT root
{
	OFFSET 0.000000 0.000000 0.000000
	CHANNELS 6 Xposition Yposition Zposition Zrotation Yrotation Xrotation
	JOINT lhip
	{
		OFFSET 0.058581 -0.082280 -0.017664
		CHANNELS 3 Zrotation Yrotation Xrotation
		JOINT lknee
		{
			OFFSET 0.043451 -0.386469 0.008037
			CHANNELS 3 Zrotation Yrotation Xrotation
			JOINT lankle
			{
				OFFSET -0.014790 -0.426874 -0.037428
				CHANNELS 3 Zrotation Yrotation Xrotation
				JOINT ltoe
				{
					OFFSET 0.041054 -0.060286 0.122042
					CHANNELS 3 Zrotation Yrotation Xrotation
					End Site
					{
						OFFSET 0.000000 0.000000 0.000000
					}
				}
			}
		}
	}
	JOINT rhip
	{
		OFFSET -0.060310 -0.090513 -0.013543
		CHANNELS 3 Zrotation Yrotation Xrotation
		JOINT rknee
		{
			OFFSET -0.043257 -0.383688 -0.004843
			CHANNELS 3 Zrotation Yrotation Xrotation
			JOINT rankle
			{
				OFFSET 0.019056 -0.420046 -0.034562
				CHANNELS 3 Zrotation Yrotation Xrotation
				JOINT rtoe
				{
					OFFSET -0.034840 -0.062106 0.130323
					CHANNELS 3 Zrotation Yrotation Xrotation
					End Site
					{
						OFFSET 0.000000 0.000000 0.000000
					}
				}
			}
		}
	}
	JOINT lowerback
	{
		OFFSET 0.004439 0.124404 -0.038385
		CHANNELS 3 Zrotation Yrotation Xrotation
		JOINT upperback
		{
			OFFSET 0.004488 0.137956 0.026820
			CHANNELS 3 Zrotation Yrotation Xrotation
			JOINT chest
			{
				OFFSET -0.002265 0.056032 0.002855
				CHANNELS 3 Zrotation Yrotation Xrotation
				JOINT lowerneck
				{
					OFFSET -0.013390 0.211636 -0.033468
					CHANNELS 3 Zrotation Yrotation Xrotation
					JOINT upperneck
					{
						OFFSET 0.010113 0.088937 0.050410
						CHANNELS 3 Zrotation Yrotation Xrotation
						End Site
						{
							OFFSET 0.000000 0.000000 0.000000
						}
					}
				}
				JOINT lclavicle
				{
					OFFSET 0.071702 0.114000 -0.018898
					CHANNELS 3 Zrotation Yrotation Xrotation
					JOINT lshoulder
					{
						OFFSET 0.122921 0.045205 -0.019046
						CHANNELS 3 Zrotation Yrotation Xrotation
						JOINT lelbow
						{
							OFFSET 0.255332 -0.015649 -0.022946
							CHANNELS 3 Zrotation Yrotation Xrotation
							JOINT lwrist
							{
								OFFSET 0.265709 0.012698 -0.007375
								CHANNELS 3 Zrotation Yrotation Xrotation
								End Site
								{
									OFFSET 0.000000 0.000000 0.000000
								}
							}
						}
					}
				}
				JOINT rclavicle
				{
					OFFSET -0.082954 0.112472 -0.023707
					CHANNELS 3 Zrotation Yrotation Xrotation
					JOINT rshoulder
					{
						OFFSET -0.113228 0.046853 -0.008472
						CHANNELS 3 Zrotation Yrotation Xrotation
						JOINT relbow
						{
							OFFSET -0.260127 -0.014369 -0.031269
							CHANNELS 3 Zrotation Yrotation Xrotation
							JOINT rwrist
							{
								OFFSET -0.269108 0.006794 -0.006027
								CHANNELS 3 Zrotation Yrotation Xrotation
								End Site
								{
									OFFSET 0.000000 0.000000 0.000000
								}
							}
						}
					}
				}
			}
		}
	}
}
MOTION
Frames: 14
Frame Time: 0.033333
0.016592 0.232273 0.997064 90.715847 0.582813 88.185876 2.690488 1.986947 3.843387 0.842514 -8.211225 -0.374716 -0.792121 7.667083 -4.569693 0.000000 -0.000000 0.000000 -2.532380 -3.060181 4.396213 -2.005914 2.638210 -1.643184 3.482874 -5.906879 -4.280093 0.000000 -0.000000 0.000000 -1.791229 2.052194 -1.998630 1.449844 -4.928061 12.025752 -0.170680 -1.185168 -7.243469 0.132321 -5.334117 -0.978166 4.482749 -5.763854 3.802155 -25.490016 -6.832060 5.307032 -57.339571 -6.136361 19.508931 5.962077 -18.127433 12.541866 -11.311795 -7.666313 13.190914 24.409748 11.875659 4.597185 57.118731 5.563644 17.247210 -4.674942 14.729727 6.934806 12.246190 5.401989 5.443884 
0.017083 0.232077 0.996894 90.688714 0.743556 88.056278 2.927545 2.126180 3.986188 0.808926 -8.259695 -0.357316 -1.120915 7.653136 -4.560746 0.000000 -0.000000 0.000000 -2.298368 -3.023783 4.563960 -2.066372 2.620713 -1.619890 3.321211 -5.931823 -4.427370 0.000000 -0.000000 0.000000 -1.400984 1.923068 -1.624828 1.172274 -4.782927 11.447459 -0.169157 -1.120439 -6.788343 0.214368 -5.091616 -0.877696 4.539751 -5.724474 3.552486 -25.410230 -7.170721 5.516726 -57.309620 -6.123330 19.105187 6.082099 -18.205119 12.696327 -11.765274 -7.883467 13.098013 24.395486 11.995846 4.809181 57.131273 5.689967 16.943145 -4.619535 14.782957 7.215361 12.178418 5.647803 5.538404 
0.017196 0.231965 0.996874 90.689287 0.733272 88.165189 2.920749 2.178906 3.841260 0.794404 -8.307584 -0.300593 -1.135711 7.617642 -4.526013 0.000000 -0.000000 0.000000 -2.302194 -2.988996 4.448172 -2.078477 2.633927 -1.597358 3.372558 -5.936971 -4.388043 0.000000 -0.000000 0.000000 -1.385463 1.876959 -1.589378 1.160376 -4.751083 11.271591 -0.174286 -1.070312 -6.722637 0.154492 -5.138265 -0.782368 4.533057 -5.769061 3.494974 -25.277270 -7.239815 5.455536 -57.335244 -6.085013 19.197986 5.930724 -18.225462 12.772360 -11.707261 -7.913720 13.062204 24.249469 12.040062 4.821967 57.219781 5.687449 16.987089 -4.548129 14.843467 7.277782 12.234848 5.633532 5.463400 
0.017357 0.231984 0.996944 90.592614 0.757972 88.112145 2.908249 1.997635 3.893617 0.806986 -8.178142 -0.218807 -1.136484 7.756809 -4.629792 0.000000 -0.000000 0.000000 -2.272658 -2.978410 4.480128 -2.098892 2.668139 -1.576349 3.471908 -5.954446 -4.403188 0.000000 -0.000000 0.000000 -1.288412 1.971708 -1.276357 1.148838 -4.759456 11.085291 -0.156836 -0.999279 -6.665159 0.042972 -5.165718 -0.654202 4.531167 -5.684460 3.434551 -25.245089 -7.347954 5.421147 -57.340846 -6.077887 19.227198 5.894227 -18.290167 12.871553 -11.862524 -7.871550 13.018621 24.130414 12.154816 4.848616 57.057284 5.698207 17.161061 -4.209294 15.032695 7.945913 12.586278 5.565477 5.689189 
0.016882 0.231959 0.997160 90.594369 0.764273 88.130890 2.909887 1.959681 3.724448 0.740475 -8.135576 0.012148 -1.077536 7.804300 -4.637226 0.000000 -0.000000 0.000000 -2.237189 -2.961326 4.383134 -2.116451 2.646716 -1.474900 3.356563 -5.966025 -4.506621 0.000000 -0.000000 0.000000 -1.272808 2.013604 -0.886197 1.159163 -4.726882 10.817096 -0.086708 -0.973648 -6.716997 -0.027497 -5.254380 -0.639223 4.550966 -5.540228 3.604051 -25.292293 -7.460233 5.448492 -57.310677 -6.026949 19.278476 5.881628 -18.306629 12.936093 -11.945282 -7.925132 13.003238 24.136487 12.328704 4.868590 56.733441 5.731882 17.373064 -3.805193 15.027691 8.728905 12.884049 5.508465 6.136178 
0.015715 0.232352 0.997941 90.576907 0.766948 88.101563 2.858863 1.840377 3.388545 0.680643 -8.161802 0.654764 -0.981307 7.894416 -4.910828 0.000000 -0.000000 0.000000 -2.217397 -2.816817 4.187363 -2.141794 2.610736 -1.113932 3.269676 -5.974708 -4.503659 0.000000 -0.000000 0.000000 -1.238114 1.991720 -0.357477 1.228767 -4.693430 10.797767 -0.002584 -0.817098 -6.824440 -0.148210 -5.337572 -0.403057 4.451316 -5.400683 3.724157 -25.371676 -7.542808 5.399600 -57.318067 -6.115722 19.326628 5.872717 -18.394578 13.233644 -12.085586 -7.942391 13.178044 24.130206 12.788593 5.038498 55.993657 6.259222 17.652300 -2.928223 14.774615 10.025773 13.222179 5.294988 7.098054 
0.012753 0.232826 0.998961 90.530096 0.712742 88.134116 2.753396 1.497532 2.673842 0.488543 -8.022672 1.652800 -0.884790 7.936814 -4.963876 0.000000 -0.000000 0.000000 -2.212626 -2.647054 3.713813 -2.206198 2.342517 -0.666362 3.196712 -5.916837 -4.485815 0.000000 -0.000000 0.000000 -1.276827 2.062007 0.288069 1.264851 -4.664124 10.955630 0.153871 -0.618381 -6.829521 -0.298483 -5.364461 0.001455 4.478498 -5.323818 3.735706 -25.266836 -8.162103 5.698967 -57.447921 -6.530273 19.254469 6.155645 -18.562468 13.032432 -12.365632 -8.125967 13.112488 23.995433 14.165259 5.365998 55.525026 7.517357 17.835951 -2.588026 13.391214 10.566771 13.953575 5.064511 7.768359 
0.007722 0.233697 1.000173 90.686501 0.578636 88.369927 2.476577 1.502486 1.189524 0.342796 -8.113461 3.286493 -0.977728 7.924048 -5.348926 0.000000 -0.000000 0.000000 -2.329326 -2.476319 2.778782 -2.171754 2.129170 0.030289 3.057290 -5.913034 -4.610186 0.000000 -0.000000 0.000000 -1.353698 1.985487 1.076637 1.283500 -4.597090 11.119262 0.184937 -0.342796 -6.677865 -0.180318 -5.628703 0.520147 4.616879 -5.618015 3.713170 -24.680031 -8.832989 5.648723 -57.836823 -7.392871 19.380193 6.401658 -18.461898 12.950959 -13.470139 -8.036192 13.453598 23.638463 15.848197 5.352610 55.414862 9.789458 18.194571 -2.433434 10.947772 11.950392 15.758462 4.020539 9.337752 
0.002153 0.233864 1.001634 90.346191 0.640139 88.276672 2.481903 0.705047 0.367263 0.139281 -7.537856 4.538760 -0.757328 8.268091 -5.555610 0.000000 -0.000000 0.000000 -2.188460 -2.241717 1.981411 -2.231281 2.216758 0.966492 3.011852 -5.719253 -4.409978 0.000000 -0.000000 0.000000 -1.336035 2.434528 2.374790 1.384190 -4.548787 11.550498 0.281326 -0.013676 -6.452414 0.005224 -5.915088 1.159663 4.874991 -6.365912 3.753131 -24.156536 -9.889893 5.725309 -58.033518 -8.429783 19.251743 6.708502 -18.485817 12.509422 -14.737451 -7.822011 13.882476 23.491457 18.106903 5.303236 55.043133 13.089842 18.601159 -2.865443 7.873881 13.412733 17.902649 2.340170 11.685137 
-0.008605 0.234214 1.003437 90.511812 0.801263 88.502487 2.536713 -0.304627 -1.810096 -0.064564 -7.005660 6.819887 -0.490107 8.357169 -5.660259 0.000000 -0.000000 0.000000 -1.911978 -2.187179 0.179969 -2.234236 2.020983 2.626164 2.780050 -5.632301 -4.456254 0.000000 -0.000000 0.000000 -1.308991 2.964439 4.441958 1.614743 -4.703948 12.107131 0.411062 0.321965 -6.230230 0.393414 -6.767830 2.238059 5.370794 -7.510599 4.083989 -23.400702 -11.555876 5.717721 -58.107606 -10.020181 19.480917 7.127014 -18.712588 11.233766 -15.212341 -7.154614 13.779091 23.088015 21.297702 4.727421 54.291879 17.999291 18.651479 -3.730147 4.162521 13.139075 19.806668 0.229460 12.983513 
-0.018617 0.234739 1.005028 90.740687 0.861579 88.704630 2.477849 -1.072230 -3.696142 -0.128146 -6.672756 8.673535 -0.346448 8.373669 -5.843961 0.000000 -0.000000 0.000000 -1.888605 -1.991268 -1.481080 -2.052755 1.669169 4.153071 2.588806 -5.570123 -4.330946 0.000000 -0.000000 0.000000 -1.147982 3.462036 6.542988 1.679618 -4.645229 12.649233 0.406119 0.569699 -5.951519 0.909120 -7.816340 3.366107 6.018312 -8.854533 4.266054 -22.937445 -13.210743 5.740514 -57.694365 -11.490220 19.505760 7.612898 -19.168139 9.987413 -15.293307 -6.868672 13.693864 22.426432 23.774490 4.133887 53.267576 21.805030 18.062565 -4.834086 3.535881 11.866995 20.045317 -0.651035 13.242154 
-0.028978 0.235189 1.007092 91.333198 0.901847 88.831638 2.339592 -0.274136 -5.544361 -0.812683 -10.100772 10.317107 -0.192531 10.687257 -5.352366 0.000000 -0.000000 0.000000 -1.618860 -2.259192 -2.948703 -1.902135 3.683688 5.339117 2.268527 -8.656035 -3.818486 0.000000 -0.000000 0.000000 -1.048089 3.114560 8.043332 1.431023 -4.565168 17.004455 0.121959 1.392157 -8.406837 0.826908 -13.053918 5.865842 6.620442 -6.167734 4.312705 -23.438896 -17.000219 7.843453 -56.009816 -11.588889 16.675702 10.834433 -22.785335 8.931560 -19.433700 -2.030772 9.861799 21.231712 23.972753 7.198072 51.603875 30.658702 12.883174 -5.578283 4.456583 13.555255 25.387424 -6.582096 8.016782 
-0.041290 0.234856 1.007820 91.854043 0.947361 89.397675 2.373415 -0.836272 -8.121235 -1.026064 -10.026933 12.271815 -0.253284 10.727673 -5.184161 0.000000 -0.000000 0.000000 -1.331832 -1.991919 -5.507538 -1.996829 3.328900 7.607226 2.137140 -8.842213 -3.942513 0.000000 -0.000000 0.000000 -0.927990 3.334683 10.298065 1.138005 -4.370988 18.243764 0.201786 1.837410 -8.484237 0.941753 -15.109881 8.754337 8.412005 -6.577171 4.388936 -23.345582 -19.388755 8.343539 -54.626777 -12.775886 16.388385 11.382750 -23.719525 8.159119 -15.129878 -2.936925 8.247234 19.407319 26.851197 7.483874 49.400306 34.739436 10.896647 -5.659420 6.178680 12.198635 20.498362 -4.293641 8.826506 
-0.055608 0.235033 1.007443 92.639201 0.891900 90.664587 2.343693 -1.494035 -11.773271 -1.309803 -9.935138 14.444762 -0.350291 10.654157 -5.069283 0.000000 -0.000000 0.000000 -1.328855 -1.769062 -8.985501 -1.866242 2.768672 9.962503 2.097166 -9.116354 -4.004105 0.000000 -0.000000 0.000000 -0.689974 3.494183 12.581346 0.713949 -4.173035 18.952064 0.167868 2.306733 -8.587789 0.990615 -17.791801 11.848491 10.387128 -7.069170 5.170240 -22.965744 -21.721127 8.937904 -53.485241 -14.264276 16.237538 12.051319 -24.280125 7.558034 -9.358566 -4.066898 5.648583 16.832465 29.437061 7.875019 46.918343 38.391165 8.650100 -5.462662 8.879107 11.444592 12.968456 -1.439250 9.356024 
